name C:\Users\Nicos\Desktop\Gil_twoSteps\Study2\ExperimentalData\IK_Splined\twoSteps_IK_BSplines_160_meshInts_study2_p02_s_01_lowIK_modROI.mot
datacolumns 38
datarows 11
range 0.54600000 0.55320749
endheader
                time	         pelvis_tilt	         pelvis_list	     pelvis_rotation	           pelvis_tx	           pelvis_ty	           pelvis_tz	       hip_flexion_r	     hip_adduction_r	      hip_rotation_r	        knee_angle_r	       ankle_angle_r	    subtalar_angle_r	         mtp_angle_r	       hip_flexion_l	     hip_adduction_l	      hip_rotation_l	        knee_angle_l	       ankle_angle_l	    subtalar_angle_l	         mtp_angle_l	    lumbar_extension	      lumbar_bending	     lumbar_rotation	          arm_flex_r	           arm_add_r	           arm_rot_r	        elbow_flex_r	           pro_sup_r	        wrist_flex_r	         wrist_dev_r	          arm_flex_l	           arm_add_l	           arm_rot_l	        elbow_flex_l	           pro_sup_l	        wrist_flex_l	         wrist_dev_l	
          0.54600000	        -23.03678568	         12.59732002	         -7.18965881	         -0.28945040	          0.87242787	          0.35077799	        -11.57132851	        -16.63112647	          0.60230720	        -25.39780547	        -42.87585011	        -15.79437872	         -5.88040663	         88.26797077	          0.78500106	        -11.20110015	        -86.12856819	          6.55837550	        -14.41669463	          7.20111897	        -14.97636229	        -23.77692696	         -7.01678073	         55.89907488	        -12.95076158	         24.70682481	        141.32157933	         60.41769520	        -18.61246505	         10.24864838	        -76.17756231	          4.62892107	        -44.93760219	         52.75102585	         63.40045011	          1.35606180	         25.46728259	
          0.54642251	        -23.02638859	         12.52162838	         -7.10371783	         -0.28709305	          0.87271677	          0.35082972	        -11.53443074	        -16.49669674	          0.49529703	        -25.66290946	        -42.85866012	        -15.86574655	         -5.94083259	         88.14139424	          0.80364968	        -11.16437633	        -85.94346784	          6.56226124	        -14.40094435	          7.19691809	        -15.04367871	        -23.73634603	         -7.07550182	         55.54235031	        -13.07287041	         24.66436087	        141.43516113	         60.38633176	        -18.63370380	         10.25658969	        -76.01799970	          4.62003024	        -44.94990088	         52.78817621	         63.39399190	          1.36392318	         25.46127116	
          0.54775749	        -22.98739079	         12.28146209	         -6.83305251	         -0.27964372	          0.87363366	          0.35099740	        -11.41271072	        -16.07120919	          0.16047643	        -26.51717848	        -42.78327858	        -16.07318771	         -6.09909785	         87.72871087	          0.86340799	        -11.04819983	        -85.36218932	          6.57173142	        -14.34762446	          7.18616182	        -15.26736001	        -23.60685680	         -7.25425930	         54.39655622	        -13.45989401	         24.50925511	        141.78240816	         60.28778843	        -18.70148868	         10.28307371	        -75.50550828	          4.57850924	        -44.98135389	         52.91460972	         63.38081066	          1.38786978	         25.44145681	
          0.54872500	        -22.94655074	         12.10533318	         -6.63867550	         -0.27424266	          0.87430651	          0.35112763	        -11.31398269	        -15.76131618	         -0.07545653	        -27.17036697	        -42.68554281	        -16.18659701	         -6.14698871	         87.40352896	          0.90842846	        -10.96370651	        -84.94820025	          6.57285169	        -14.30170702	          7.18351534	        -15.45195404	        -23.51041177	         -7.36994739	         53.52790988	        -13.74286199	         24.35400795	        142.01028992	         60.21749972	        -18.75200477	         10.30511722	        -75.11702266	          4.52094144	        -44.98899765	         53.02476434	         63.38603729	          1.40339966	         25.42541740	
          0.54872500	        -22.94655074	         12.10533318	         -6.63867550	         -0.27424266	          0.87430651	          0.35112763	        -11.31398269	        -15.76131618	         -0.07545653	        -27.17036697	        -42.68554281	        -16.18659701	         -6.14698871	         87.40352896	          0.90842846	        -10.96370651	        -84.94820025	          6.57285169	        -14.30170702	          7.18351534	        -15.45195404	        -23.51041177	         -7.36994739	         53.52790988	        -13.74286199	         24.35400795	        142.01028992	         60.21749972	        -18.75200477	         10.30511722	        -75.11702266	          4.52094144	        -44.98899765	         53.02476434	         63.38603729	          1.40339966	         25.42541740	
          0.54914751	        -22.92871586	         12.02841757	         -6.55379092	         -0.27188401	          0.87460035	          0.35118450	        -11.27086809	        -15.62598570	         -0.17848861	        -27.45561483	        -42.64286154	        -16.23612293	         -6.16790268	         87.26152180	          0.92808892	        -10.92680822	        -84.76741094	          6.57334092	        -14.28165485	          7.18235962	        -15.53256637	        -23.46829416	         -7.42046846	         53.14857143	        -13.86643429	         24.28621142	        142.10980604	         60.18680460	        -18.77406519	         10.31474363	        -74.94737072	          4.49580154	        -44.99233569	         53.07286894	         63.38831977	          1.41018158	         25.41841298	
          0.55048249	        -22.86816702	         11.78557385	         -6.28652084	         -0.26443013	          0.87553188	          0.35136668	        -11.13117324	        -15.19942981	         -0.50186958	        -28.36686127	        -42.49856905	        -16.38014478	         -6.21699163	         86.80402360	          0.99063990	        -10.81060277	        -84.19887758	          6.57288288	        -14.21677828	          7.18029703	        -15.79478532	        -23.33480595	         -7.57407134	         51.93590164	        -14.25633770	         24.05401672	        142.41549981	         60.08973121	        -18.84534026	         10.34669654	        -74.40513196	          4.40573269	        -44.99643778	         53.23147237	         63.40046273	          1.43138108	         25.39568195	
          0.55145000	        -22.81156226	         11.61011427	         -6.09563832	         -0.25902343	          0.87621651	          0.35150625	        -11.01941285	        -14.89341693	         -0.72969709	        -29.05752714	        -42.36539346	        -16.44676263	         -6.20107607	         86.44574349	          1.03728241	        -10.72752930	        -83.79497943	          6.56647821	        -14.16515306	          7.18361792	        -16.00760807	        -23.23680710	         -7.66714049	         51.01424750	        -14.53729789	         23.83122784	        142.61057248	         60.01910710	        -18.90176423	         10.37451344	        -73.99333334	          4.30821879	        -44.97987905	         53.36645958	         63.42420817	          1.44605259	         25.37738958	
          0.55145000	        -22.81156226	         11.61011427	         -6.09563832	         -0.25902343	          0.87621651	          0.35150625	        -11.01941285	        -14.89341693	         -0.72969709	        -29.05752714	        -42.36539346	        -16.44676263	         -6.20107607	         86.44574349	          1.03728241	        -10.72752930	        -83.79497943	          6.56647821	        -14.16515306	          7.18361792	        -16.00760807	        -23.23680710	         -7.66714049	         51.01424750	        -14.53729789	         23.83122784	        142.61057248	         60.01910710	        -18.90176423	         10.37451344	        -73.99333334	          4.30821879	        -44.97987905	         53.36645958	         63.42420817	          1.44605259	         25.37738958	
          0.55187251	        -22.78684293	         11.53349095	         -6.01227979	         -0.25666231	          0.87651549	          0.35156721	        -10.97060702	        -14.75978089	         -0.82918952	        -29.35914140	        -42.30723560	        -16.47585469	         -6.19412574	         86.28928232	          1.05765122	        -10.69125106	        -83.61859683	          6.56368128	        -14.14260830	          7.18506815	        -16.10054792	        -23.19401094	         -7.70778385	         50.61176051	        -14.65999340	         23.73393578	        142.69576085	         59.98826550	        -18.92640462	         10.38666111	        -73.81350060	          4.26563441	        -44.97264784	         53.42540858	         63.43457782	          1.45245965	         25.36940128	
          0.55320749	        -22.70634472	         11.29209976	         -5.74962695	         -0.24920084	          0.87746200	          0.35176089	        -10.81424593	        -14.33920973	         -1.14241770	        -30.31725624	        -42.12096675	        -16.56057594	         -6.16526524	         85.78972925	          1.12222082	        -10.57717946	        -83.06303862	          6.55355980	        -14.07112774	          7.19049276	        -16.39854617	        -23.05884405	         -7.83178668	         49.33085356	        -15.04636836	         23.41365427	        142.95898353	         59.89054624	        -19.00586971	         10.42632574	        -73.24128681	          4.12384852	        -44.94491472	         53.61572818	         63.47027780	          1.47279835	         25.34379321	
